<svg width="900" height="900" viewBox="0 0 900 900" fill="none" xmlns="http://www.w3.org/2000/svg">
<mask id="mask0_40002030_908" style="mask-type:alpha" maskUnits="userSpaceOnUse" x="117" y="210" width="666" height="480">
<path d="M520.146 547.805C517.046 587.492 531.721 628.213 564.174 657.151C613.989 701.385 690.469 700.972 739.871 655.704C795.68 604.855 797.127 518.247 744.418 465.538C715.893 437.22 677.86 424.404 640.654 427.505C636.313 427.711 631.765 428.332 627.425 429.158C624.117 430.192 621.017 431.019 617.71 431.432C596.833 434.533 574.716 428.125 558.593 412.002C551.978 405.388 547.017 397.946 543.71 389.885C541.023 383.89 539.783 377.483 539.163 370.868C538.956 369.008 538.749 367.148 538.336 365.287C536.889 357.639 534.202 350.198 530.068 343.17C527.174 338.416 523.453 333.662 519.319 329.528C492.035 302.036 447.387 302.656 420.516 330.975C396.331 356.606 395.711 397.326 419.069 423.577C424.029 429.365 429.817 433.912 435.811 437.426C442.839 441.56 450.281 444.248 457.929 445.694C459.789 446.108 461.649 446.315 463.51 446.521C469.917 447.348 476.532 448.588 482.526 451.069C490.588 454.376 498.029 459.337 504.643 465.951C519.939 481.041 526.554 501.918 524.487 521.761C524.349 523.139 524.027 524.517 523.706 525.895C523.545 526.584 523.384 527.273 523.247 527.962C522.626 530.236 522.213 532.303 521.8 534.577C521.18 538.917 520.559 543.465 520.146 547.805Z" fill="white"/>
<path d="M379.854 352.195C382.954 312.508 368.278 271.787 335.826 242.849C286.011 198.615 209.531 199.028 160.129 244.296C104.319 295.145 102.872 381.753 155.582 434.462C184.107 462.78 222.14 475.596 259.346 472.495C263.687 472.289 268.234 471.669 272.575 470.842C275.882 469.808 278.983 468.981 282.29 468.568C303.167 465.467 325.284 471.875 341.407 487.998C348.022 494.613 352.982 502.054 356.29 510.115C358.977 516.11 360.217 522.517 360.837 529.132C361.044 530.992 361.251 532.852 361.664 534.713C363.111 542.361 365.798 549.802 369.932 556.83C372.826 561.584 376.547 566.338 380.681 570.472C407.965 597.964 452.613 597.344 479.484 569.025C503.669 543.394 504.289 502.674 480.931 476.423C475.97 470.635 470.183 466.088 464.188 462.574C457.16 458.44 449.719 455.752 442.071 454.306C440.211 453.892 438.351 453.685 436.49 453.479C430.082 452.652 423.468 451.412 417.474 448.931C409.412 445.624 401.971 440.663 395.356 434.049C380.06 418.959 373.446 398.082 375.513 378.239C375.651 376.861 375.972 375.483 376.294 374.105C376.455 373.416 376.615 372.727 376.753 372.038C377.373 369.764 377.787 367.697 378.2 365.423C378.82 361.083 379.44 356.535 379.854 352.195Z" fill="white"/>
<path d="M284.439 486.409C316.433 486.409 342.369 512.346 342.369 544.34C342.369 576.334 316.433 602.271 284.439 602.271C252.444 602.271 226.508 576.334 226.508 544.34C226.508 512.346 252.444 486.409 284.439 486.409Z" fill="white"/>
<path d="M666.782 353.996C666.782 322.002 640.845 296.065 608.851 296.065C576.857 296.065 550.92 322.002 550.92 353.996C550.92 385.99 576.857 411.927 608.851 411.927C640.845 411.927 666.782 385.99 666.782 353.996Z" fill="white"/>
</mask>
<g mask="url(#mask0_40002030_908)">
<path d="M419.069 423.578C395.711 397.327 396.332 356.606 420.516 330.975C447.387 302.657 492.035 302.036 519.32 329.528C523.454 333.662 527.175 338.416 530.069 343.17C534.203 350.198 536.889 357.64 538.336 365.288C538.75 367.148 538.957 369.008 539.163 370.869C539.783 377.483 541.023 383.891 543.71 389.885C547.017 397.947 551.979 405.388 558.593 412.002C574.716 428.125 596.833 434.533 617.71 431.432C621.017 431.019 624.118 430.192 627.425 429.159C631.766 428.332 636.314 427.711 640.655 427.504C677.861 424.404 715.894 437.219 744.419 465.538C797.128 518.247 795.681 604.856 739.871 655.705C690.469 700.972 613.989 701.385 564.174 657.151C531.722 628.213 517.046 587.492 520.147 547.805C520.56 543.465 521.18 538.917 521.8 534.577C522.213 532.303 522.627 530.236 523.247 527.962C523.661 525.895 524.281 523.828 524.488 521.761C526.555 501.918 519.94 481.041 504.644 465.952C498.029 459.337 490.588 454.376 482.527 451.069C476.532 448.588 469.918 447.348 463.51 446.521C461.65 446.314 459.789 446.108 457.929 445.695C450.281 444.248 442.84 441.56 435.812 437.426C429.817 433.912 424.029 429.365 419.069 423.578ZM550.921 353.996C550.921 322.001 576.858 296.065 608.852 296.065C640.846 296.065 666.782 322.002 666.782 353.996C666.782 385.99 640.846 411.927 608.852 411.927C576.858 411.927 550.921 385.99 550.921 353.996ZM155.582 434.462C102.873 381.753 104.319 295.144 160.129 244.295C209.531 199.028 286.011 198.615 335.826 242.849C368.279 271.787 382.954 312.508 379.854 352.195C379.44 356.535 378.821 361.083 378.2 365.423C377.787 367.697 377.373 369.764 376.753 372.038C376.34 374.105 375.721 376.172 375.514 378.239C373.447 398.082 380.061 418.959 395.357 434.048C401.971 440.663 409.413 445.624 417.474 448.931C423.468 451.412 430.083 452.652 436.49 453.479C438.351 453.686 440.211 453.892 442.072 454.305C449.72 455.752 457.161 458.44 464.189 462.574C470.183 466.088 475.971 470.635 480.932 476.422C504.289 502.674 503.669 543.395 479.485 569.026C452.613 597.344 407.966 597.963 380.681 570.472C376.547 566.338 372.827 561.584 369.933 556.83C365.799 549.802 363.111 542.36 361.664 534.712C361.251 532.852 361.044 530.992 360.837 529.132C360.217 522.518 358.977 516.109 356.29 510.115C352.983 502.054 348.022 494.613 341.407 487.999C325.285 471.876 303.167 465.467 282.29 468.568C278.983 468.981 275.883 469.808 272.575 470.841C268.235 471.668 263.688 472.289 259.347 472.496C222.141 475.596 184.107 462.78 155.582 434.462ZM226.508 544.34C226.508 512.346 252.445 486.41 284.44 486.41C316.434 486.41 342.37 512.346 342.37 544.34C342.37 576.334 316.434 602.271 284.44 602.271C252.445 602.271 226.508 576.334 226.508 544.34Z" fill="#1A1B0E"/>
</g>
</svg>
