<svg width="414" height="354" viewBox="0 0 414 354" fill="none" xmlns="http://www.w3.org/2000/svg">
<g clip-path="url(#clip0_40002034_939)">
<rect width="414" height="354" fill="#1C1C1C"/>
<mask id="mask0_40002034_939" style="mask-type:alpha" maskUnits="userSpaceOnUse" x="-132" y="17" width="666" height="480">
<path d="M271.146 354.806C268.046 394.492 282.721 435.213 315.174 464.151C364.989 508.385 441.469 507.972 490.871 462.704C546.68 411.855 548.127 325.247 495.418 272.538C466.893 244.22 428.86 231.404 391.654 234.505C387.313 234.711 382.765 235.332 378.425 236.158C375.117 237.192 372.017 238.019 368.71 238.432C347.833 241.533 325.716 235.125 309.593 219.002C302.978 212.388 298.017 204.946 294.71 196.885C292.023 190.891 290.783 184.483 290.163 177.868C289.956 176.008 289.749 174.148 289.336 172.287C287.889 164.639 285.202 157.198 281.068 150.17C278.174 145.416 274.453 140.662 270.319 136.528C243.035 109.036 198.387 109.656 171.516 137.975C147.331 163.606 146.711 204.326 170.069 230.577C175.029 236.365 180.817 240.913 186.811 244.426C193.839 248.561 201.281 251.248 208.929 252.695C210.789 253.108 212.649 253.315 214.51 253.521C220.917 254.348 227.532 255.588 233.526 258.069C241.588 261.376 249.029 266.337 255.643 272.951C270.939 288.041 277.554 308.918 275.487 328.761C275.349 330.139 275.027 331.517 274.706 332.895C274.545 333.584 274.384 334.273 274.247 334.962C273.626 337.236 273.213 339.303 272.8 341.577C272.18 345.917 271.559 350.465 271.146 354.806Z" fill="white"/>
<path d="M130.854 159.195C133.954 119.508 119.278 78.7873 86.8262 49.849C37.0109 5.61465 -39.4691 6.02805 -88.8709 51.2959C-144.681 102.145 -146.128 188.753 -93.4184 241.462C-64.8935 269.78 -26.8602 282.596 10.3463 279.495C14.687 279.289 19.2344 278.669 23.5752 277.842C26.8824 276.808 29.983 275.981 33.2902 275.568C54.1672 272.467 76.2843 278.875 92.4071 294.998C99.0216 301.613 103.982 309.054 107.29 317.115C109.977 323.11 111.217 329.517 111.837 336.132C112.044 337.992 112.251 339.853 112.664 341.713C114.111 349.361 116.798 356.802 120.932 363.83C123.826 368.584 127.547 373.338 131.681 377.472C158.965 404.964 203.613 404.344 230.484 376.025C254.669 350.394 255.289 309.674 231.931 283.423C226.97 277.635 221.183 273.088 215.188 269.574C208.16 265.44 200.719 262.753 193.071 261.306C191.211 260.892 189.351 260.685 187.49 260.479C181.082 259.652 174.468 258.412 168.474 255.931C160.412 252.624 152.971 247.663 146.356 241.049C131.06 225.959 124.446 205.083 126.513 185.239C126.651 183.861 126.972 182.483 127.294 181.105C127.455 180.416 127.615 179.727 127.753 179.038C128.373 176.764 128.787 174.697 129.2 172.424C129.82 168.083 130.44 163.535 130.854 159.195Z" fill="white"/>
<path d="M35.4386 293.409C67.4329 293.409 93.3694 319.346 93.3694 351.34C93.3694 383.334 67.4328 409.271 35.4385 409.271C3.44427 409.271 -22.4922 383.334 -22.4922 351.34C-22.4922 319.346 3.44427 293.409 35.4386 293.409Z" fill="white"/>
<path d="M417.782 160.996C417.782 129.002 391.845 103.065 359.851 103.065C327.857 103.065 301.92 129.002 301.92 160.996C301.92 192.99 327.857 218.927 359.851 218.927C391.845 218.927 417.782 192.99 417.782 160.996Z" fill="white"/>
</mask>
<g mask="url(#mask0_40002034_939)">
<path fill-rule="evenodd" clip-rule="evenodd" d="M130.854 159.195C133.955 119.508 119.279 78.7873 86.8266 49.8489C37.0113 5.61463 -39.4686 6.02802 -88.8705 51.2959C-144.68 102.145 -146.127 188.753 -93.418 241.462C-64.8931 269.78 -26.8598 282.596 10.3466 279.495C14.6874 279.289 19.2349 278.669 23.5756 277.842C26.8829 276.808 29.9834 275.981 33.2906 275.568C54.1676 272.467 76.2847 278.875 92.4075 294.998C99.022 301.613 103.983 309.054 107.29 317.115C109.977 323.11 111.217 329.517 111.838 336.132C112.044 337.992 112.251 339.853 112.664 341.713C114.111 349.361 116.798 356.802 120.932 363.83C123.826 368.584 127.547 373.338 131.681 377.472C158.966 404.964 203.613 404.344 230.485 376.025C254.669 350.394 255.289 309.674 231.932 283.423C226.971 277.635 221.183 273.088 215.189 269.574C208.161 265.44 200.72 262.752 193.072 261.306C191.211 260.892 189.351 260.685 187.491 260.479C181.083 259.652 174.468 258.412 168.474 255.931C160.413 252.624 152.971 247.663 146.357 241.049C131.061 225.959 124.446 205.083 126.513 185.239C126.651 183.861 126.973 182.483 127.294 181.105C127.455 180.416 127.616 179.727 127.754 179.038C128.374 176.764 128.787 174.697 129.201 172.424C129.821 168.083 130.441 163.535 130.854 159.195ZM271.147 354.806C268.046 394.492 282.722 435.213 315.174 464.151C364.989 508.385 441.469 507.972 490.871 462.704C546.681 411.855 548.128 325.247 495.419 272.538C466.894 244.22 428.861 231.404 391.654 234.505C387.313 234.711 382.766 235.332 378.425 236.158C375.118 237.192 372.017 238.019 368.71 238.432C347.833 241.533 325.716 235.125 309.593 219.002C302.979 212.388 298.018 204.946 294.711 196.885C292.024 190.891 290.783 184.483 290.163 177.868C289.957 176.008 289.75 174.148 289.336 172.287C287.889 164.639 285.202 157.198 281.068 150.17C278.174 145.416 274.454 140.662 270.32 136.528C243.035 109.036 198.387 109.656 171.516 137.975C147.332 163.606 146.712 204.326 170.069 230.577C175.03 236.365 180.818 240.913 186.812 244.426C193.84 248.561 201.281 251.248 208.929 252.695C210.789 253.108 212.649 253.315 214.509 253.521L214.51 253.521C220.918 254.348 227.532 255.588 233.527 258.069C241.588 261.376 249.029 266.337 255.644 272.951C270.94 288.041 277.554 308.918 275.487 328.761C275.35 330.139 275.028 331.517 274.706 332.895C274.546 333.584 274.385 334.273 274.247 334.962C273.627 337.236 273.214 339.303 272.8 341.577C272.18 345.917 271.56 350.465 271.147 354.806ZM35.4393 293.409C67.4336 293.409 93.3701 319.346 93.3701 351.34C93.3701 383.334 67.4336 409.271 35.4393 409.271C3.44499 409.271 -22.4915 383.334 -22.4915 351.34C-22.4915 319.346 3.445 293.409 35.4393 293.409ZM417.782 160.996C417.782 129.002 391.846 103.065 359.852 103.065C327.857 103.065 301.921 129.002 301.921 160.996C301.921 192.99 327.857 218.927 359.852 218.927C391.846 218.927 417.782 192.99 417.782 160.996Z" fill="#E6FF00" fill-opacity="0.05"/>
</g>
</g>
<defs>
<clipPath id="clip0_40002034_939">
<rect width="414" height="354" fill="white"/>
</clipPath>
</defs>
</svg>
